<?xml version="1.0" encoding="UTF-8" standalone="no"?>
<svg width="36px" height="36px" viewBox="0 0 36 36" version="1.1" xmlns="http://www.w3.org/2000/svg" xmlns:xlink="http://www.w3.org/1999/xlink" xmlns:sketch="http://www.bohemiancoding.com/sketch/ns">
    <!-- Generator: Sketch 3.3.2 (12043) - http://www.bohemiancoding.com/sketch -->
    <title>icon_Twitter</title>
    <desc>Created with Sketch.</desc>
    <defs></defs>
    <g id="Page-1" stroke="none" stroke-width="1" fill="none" fill-rule="evenodd" sketch:type="MSPage">
        <g id="Desktop-HD" sketch:type="MSArtboardGroup" transform="translate(-399.000000, -119.000000)" fill="#FFFFFF">
            <g id="Behance-+-Twitter-+-Facebook" sketch:type="MSLayerGroup" transform="translate(399.000000, 118.250000)">
                <g id="Twitter-+-icon_Twitter" sketch:type="MSShapeGroup">
                    <path d="M36,18.7600452 C36,28.7010452 27.941,36.7600452 18,36.7600452 C8.059,36.7600452 0,28.7010452 0,18.7600452 C0,8.81904517 8.059,0.760045168 18,0.760045168 C27.941,0.760045168 36,8.81904517 36,18.7600452 L36,18.7600452 Z M26.302,13.9720452 C25.734,14.2240452 25.124,14.3940452 24.483,14.4710452 C25.137,14.0790452 25.64,13.4580452 25.876,12.7180452 C25.264,13.0810452 24.586,13.3450452 23.865,13.4870452 C23.287,12.8710452 22.464,12.4870452 21.553,12.4870452 C19.803,12.4870452 18.385,13.9050452 18.385,15.6540452 C18.385,15.9020452 18.413,16.1440452 18.467,16.3760452 C15.835,16.2440452 13.501,14.9830452 11.939,13.0670452 C11.667,13.5340452 11.51,14.0780452 11.51,14.6590452 C11.51,15.7580452 12.069,16.7270452 12.919,17.2950452 C12.4,17.2790452 11.912,17.1360452 11.485,16.8990452 C11.484,16.9120452 11.484,16.9250452 11.484,16.9390452 C11.484,18.4730452 12.576,19.7540452 14.025,20.0440452 C13.759,20.1170452 13.479,20.1560452 13.191,20.1560452 C12.986,20.1560452 12.788,20.1360452 12.595,20.0990452 C12.998,21.3570452 14.167,22.2730452 15.553,22.2980452 C14.469,23.1480452 13.104,23.6540452 11.62,23.6540452 C11.364,23.6540452 11.112,23.6390452 10.864,23.6100452 C12.266,24.5080452 13.931,25.0330452 15.72,25.0330452 C21.545,25.0330452 24.731,20.2070452 24.731,16.0210452 C24.731,15.8840452 24.728,15.7470452 24.722,15.6110452 C25.341,15.1650452 25.878,14.6070452 26.302,13.9720452 L26.302,13.9720452 Z" id="Twitter"></path>
                </g>
            </g>
        </g>
    </g>
</svg>