<?xml version="1.0" encoding="UTF-8" standalone="no"?>
<svg width="43px" height="43px" viewBox="0 0 43 43" version="1.1" xmlns="http://www.w3.org/2000/svg" xmlns:xlink="http://www.w3.org/1999/xlink" xmlns:sketch="http://www.bohemiancoding.com/sketch/ns">
    <!-- Generator: Sketch 3.3.2 (12043) - http://www.bohemiancoding.com/sketch -->
    <title>symbol</title>
    <desc>Created with Sketch.</desc>
    <defs></defs>
    <g id="Page-1" stroke="none" stroke-width="1" fill="none" fill-rule="evenodd" sketch:type="MSPage">
        <g id="Desktop-HD" sketch:type="MSArtboardGroup" transform="translate(-626.000000, -351.000000)">
            <g id="Rectangle-10-+-Q" sketch:type="MSLayerGroup" transform="translate(626.000000, 351.000000)">
                <rect id="Rectangle-10" fill="#000000" sketch:type="MSShapeGroup" x="0" y="0" width="43" height="43" rx="7"></rect>
                <path d="M23.6191406,26.8261719 C23.1227189,27.241213 22.4594768,27.4487305 21.6293945,27.4487305 C20.9946257,27.4487305 20.4493838,27.3144545 19.9936523,27.0458984 C19.5297828,26.8180327 19.1554376,26.5209979 18.8706055,26.1547852 C18.5206688,25.7722963 18.2887375,25.271813 18.1748047,24.6533203 C18.0445957,24.0348276 17.9794922,22.8507574 17.9794922,21.1010742 C17.9794922,19.351391 18.0445957,18.1591829 18.1748047,17.5244141 C18.2887375,16.9221975 18.5206688,16.4298522 18.8706055,16.0473633 C19.1554376,15.6811505 19.5297828,15.3759778 19.9936523,15.1318359 C20.4493838,14.8958322 20.9946257,14.7696941 21.6293945,14.753418 C22.2723014,14.7696941 22.8297502,14.8958322 23.3017578,15.1318359 C23.7493512,15.3759778 24.1074205,15.6811505 24.3759766,16.0473633 C24.7259132,16.4298522 24.9659824,16.9221975 25.0961914,17.5244141 C25.2182623,18.1591829 25.2792969,19.351391 25.2792969,21.1010742 C25.2792969,22.9809664 25.1938485,24.2220022 25.0229492,24.8242188 L22.9477539,23.1762695 L21.3486328,25.0195312 L23.6191406,26.8261719 Z M25.8286133,28.5961914 L28.074707,30.402832 L29.6738281,28.5473633 L27.3300781,26.6796875 C27.57422,26.2727844 27.7491857,25.7031287 27.8549805,24.9707031 C27.9363611,24.2382776 27.9770508,22.9484142 27.9770508,21.1010742 C27.9770508,19.0340066 27.9241542,17.6505569 27.8183594,16.9506836 C27.7044265,16.2508103 27.4969091,15.6852235 27.1958008,15.2539062 C26.7807596,14.431962 26.1053107,13.6995475 25.1694336,13.0566406 C24.2254185,12.4055957 23.0454172,12.0719402 21.6293945,12.0556641 C20.2296479,12.0719402 19.0618536,12.4055957 18.1259766,13.0566406 C17.1738234,13.6995475 16.4820985,14.431962 16.0507812,15.2539062 C15.7822252,15.6852235 15.5828457,16.2508103 15.4526367,16.9506836 C15.3305658,17.6505569 15.2695312,19.0340066 15.2695312,21.1010742 C15.2695312,23.1355896 15.3305658,24.5109014 15.4526367,25.2270508 C15.5177412,25.6095397 15.5991206,25.9269193 15.6967773,26.1791992 C15.8025721,26.4233411 15.9205723,26.6796862 16.0507812,26.9482422 C16.4820985,27.7701864 17.1738234,28.494463 18.1259766,29.1210938 C19.0618536,29.7721387 20.2296479,30.1139321 21.6293945,30.1464844 C23.3790778,30.1139321 24.7788033,29.597173 25.8286133,28.5961914 L25.8286133,28.5961914 Z" id="Q" fill="#FFFFFF" sketch:type="MSShapeGroup"></path>
            </g>
        </g>
    </g>
</svg>